<svg width="3300" height="407" viewBox="0 0 3300 407" fill="none" xmlns="http://www.w3.org/2000/svg">
<g filter="url(#filter0_i_5_17)">
<path fill-rule="evenodd" clip-rule="evenodd" d="M753.142 76.164C649.239 109.692 530.703 110.337 426.033 92.8221C513.438 129.939 621.509 150.839 730.631 136.245C744.51 134.393 758.106 133.205 771.988 132.336L788.727 132.004L790.56 134.075L742.136 142.888C659.722 155.411 572.829 157.257 483.589 144.958C308.792 120.469 137.635 152.464 0 210.807C166.42 183.922 355.638 186.424 523.125 240.845C555.053 251.298 587.507 259.893 620.727 266.748L642.698 270.889L636.953 270.558C524.434 259.567 422.365 283.512 345.441 323.351C445.132 302.672 563.43 299.513 675.948 329.556C745.934 344.705 826.093 353.06 902.17 353H913.308H916.49H3300V53H913.308V53.0003C859.262 52.9458 805.553 59.3216 753.142 76.164Z" fill="url(#paint0_linear_5_17)"/>
</g>
<g filter="url(#filter1_i_5_17)">
<path d="M1025.1 241.162C1025.01 249.219 1023.83 256.38 1021.56 262.646C1019.36 268.831 1016.27 274.202 1012.28 278.76C1008.29 283.236 1003.61 287.061 998.24 290.234C992.869 293.327 987.091 295.85 980.906 297.803C974.721 299.674 968.211 300.854 961.375 301.343C954.62 301.912 947.825 302.197 940.989 302.197C928.619 302.197 917.755 301.709 908.396 300.732C903.025 300.081 895.009 298.291 884.349 295.361C875.641 293.001 868.805 290.519 863.841 287.915V239.697H900.584C904.816 245.557 909.576 249.87 914.866 252.637C920.237 255.404 925.73 256.787 931.346 256.787C932.811 256.787 934.438 256.665 936.229 256.421C938.019 256.177 939.687 255.485 941.233 254.346C942.861 253.206 944.204 251.416 945.262 248.975C946.401 246.533 946.971 243.115 946.971 238.721C939.972 238.07 933.014 237.134 926.097 235.913C919.261 234.692 912.71 233.024 906.443 230.908C900.177 228.792 894.318 226.147 888.865 222.974C883.494 219.718 878.815 215.812 874.827 211.255C870.921 206.698 867.828 201.367 865.55 195.264C863.353 189.079 862.254 181.958 862.254 173.901C862.254 165.275 863.393 157.707 865.672 151.196C867.951 144.604 871.043 138.949 874.949 134.229C878.937 129.427 883.576 125.48 888.865 122.388C894.236 119.214 899.974 116.691 906.077 114.819C912.262 112.948 918.65 111.768 925.242 111.279C931.915 110.791 938.548 110.547 945.14 110.547C954.743 110.547 963.369 110.913 971.019 111.646C978.75 112.297 985.708 113.354 991.893 114.819C998.077 116.284 1003.53 117.952 1008.25 119.824C1013.05 121.615 1017.32 123.364 1021.07 125.073V172.681H984.324C980.174 166.821 975.535 162.508 970.408 159.741C965.363 156.974 960.154 155.591 954.783 155.591C953.318 155.591 951.65 155.794 949.778 156.201C947.907 156.527 946.157 157.381 944.529 158.765C942.902 160.067 941.518 162.02 940.379 164.624C939.24 167.147 938.67 170.605 938.67 175C952.911 175.488 965.444 177.035 976.268 179.639C987.091 182.243 996.084 186.19 1003.25 191.479C1010.49 196.688 1015.94 203.402 1019.6 211.621C1023.26 219.759 1025.1 229.606 1025.1 241.162ZM1140.7 208.569V300H1047.07V247.021L1062.69 243.97V168.53L1047.07 165.479V112.5H1140.7L1180 184.521L1218.94 112.5H1312.69V165.479L1297.07 168.53V243.97L1312.69 247.021V300H1218.94V208.569L1180 275.952L1140.7 208.569ZM1465.65 300L1459.06 268.506H1408.03L1401.56 300H1332.1V238.477L1347.12 235.425L1383.13 112.5H1483.96L1520.09 235.425L1535.11 238.477V300H1465.65ZM1418.53 226.636H1448.56L1433.54 155.957L1418.53 226.636ZM1757.64 300H1680C1677.56 295.361 1675.04 290.438 1672.43 285.229C1669.83 280.021 1667.31 274.609 1664.87 268.994C1662.42 263.379 1660.15 257.56 1658.03 251.538C1655.91 245.516 1654.12 239.331 1652.66 232.983H1648.39V300H1554.64V247.021L1570.26 243.97V168.53L1554.64 165.479V112.5H1660.96C1675.04 112.5 1687.21 113.151 1697.46 114.453C1707.71 115.755 1716.42 117.627 1723.58 120.068C1730.74 122.428 1736.52 125.358 1740.92 128.857C1745.39 132.275 1748.85 136.182 1751.29 140.576C1753.81 144.889 1755.48 149.65 1756.3 154.858C1757.19 159.985 1757.64 165.438 1757.64 171.216C1757.64 177.075 1757.07 182.406 1755.93 187.207C1754.87 191.927 1752.96 196.281 1750.19 200.269C1747.43 204.256 1743.64 207.918 1738.84 211.255C1734.04 214.51 1727.94 217.603 1720.53 220.532C1722.08 223.787 1724.4 227.612 1727.49 232.007C1730.58 236.32 1733.92 240.755 1737.5 245.312C1741.08 249.788 1744.66 254.183 1748.24 258.496C1751.9 262.728 1755.04 266.349 1757.64 269.36V300ZM1648.39 196.973C1653.11 196.973 1657.38 196.769 1661.2 196.362C1665.11 195.955 1668.41 195.02 1671.09 193.555C1673.86 192.09 1675.97 189.933 1677.44 187.085C1678.9 184.237 1679.64 180.412 1679.64 175.61C1679.64 170.89 1678.9 167.147 1677.44 164.38C1675.97 161.532 1673.86 159.334 1671.09 157.788C1668.41 156.242 1665.11 155.225 1661.2 154.736C1657.38 154.248 1653.11 154.004 1648.39 154.004V196.973ZM1943.06 112.5V175H1922.56C1921.17 173.21 1919.59 171.379 1917.8 169.507C1916.01 167.635 1914.01 165.967 1911.81 164.502C1909.62 162.956 1907.22 161.735 1904.61 160.84C1902.01 159.863 1899.2 159.375 1896.19 159.375V243.97L1911.81 247.021V300H1802.44V247.021L1818.06 243.97V159.375C1815.05 159.375 1812.25 159.863 1809.64 160.84C1807.04 161.735 1804.64 162.956 1802.44 164.502C1800.24 165.967 1798.25 167.635 1796.46 169.507C1794.67 171.379 1793.08 173.21 1791.7 175H1771.19V112.5H1943.06ZM2120.55 241.162C2120.47 249.219 2119.29 256.38 2117.01 262.646C2114.82 268.831 2111.72 274.202 2107.74 278.76C2103.75 283.236 2099.07 287.061 2093.7 290.234C2088.33 293.327 2082.55 295.85 2076.37 297.803C2070.18 299.674 2063.67 300.854 2056.83 301.343C2050.08 301.912 2043.28 302.197 2036.45 302.197C2024.08 302.197 2013.21 301.709 2003.86 300.732C1998.48 300.081 1990.47 298.291 1979.81 295.361C1971.1 293.001 1964.26 290.519 1959.3 287.915V239.697H1996.04C2000.27 245.557 2005.04 249.87 2010.33 252.637C2015.7 255.404 2021.19 256.787 2026.8 256.787C2028.27 256.787 2029.9 256.665 2031.69 256.421C2033.48 256.177 2035.15 255.485 2036.69 254.346C2038.32 253.206 2039.66 251.416 2040.72 248.975C2041.86 246.533 2042.43 243.115 2042.43 238.721C2035.43 238.07 2028.47 237.134 2021.56 235.913C2014.72 234.692 2008.17 233.024 2001.9 230.908C1995.64 228.792 1989.78 226.147 1984.32 222.974C1978.95 219.718 1974.27 215.812 1970.29 211.255C1966.38 206.698 1963.29 201.367 1961.01 195.264C1958.81 189.079 1957.71 181.958 1957.71 173.901C1957.71 165.275 1958.85 157.707 1961.13 151.196C1963.41 144.604 1966.5 138.949 1970.41 134.229C1974.4 129.427 1979.03 125.48 1984.32 122.388C1989.7 119.214 1995.43 116.691 2001.54 114.819C2007.72 112.948 2014.11 111.768 2020.7 111.279C2027.37 110.791 2034.01 110.547 2040.6 110.547C2050.2 110.547 2058.83 110.913 2066.48 111.646C2074.21 112.297 2081.17 113.354 2087.35 114.819C2093.54 116.284 2098.99 117.952 2103.71 119.824C2108.51 121.615 2112.78 123.364 2116.53 125.073V172.681H2079.78C2075.63 166.821 2070.99 162.508 2065.87 159.741C2060.82 156.974 2055.61 155.591 2050.24 155.591C2048.78 155.591 2047.11 155.794 2045.24 156.201C2043.37 156.527 2041.62 157.381 2039.99 158.765C2038.36 160.067 2036.98 162.02 2035.84 164.624C2034.7 167.147 2034.13 170.605 2034.13 175C2048.37 175.488 2060.9 177.035 2071.73 179.639C2082.55 182.243 2091.54 186.19 2098.7 191.479C2105.95 196.688 2111.4 203.402 2115.06 211.621C2118.72 219.759 2120.55 229.606 2120.55 241.162ZM2236.28 253.125C2241.81 253.125 2247.02 252.677 2251.9 251.782C2256.79 250.806 2261.26 249.585 2265.33 248.12C2269.48 246.655 2273.22 244.987 2276.56 243.115C2279.9 241.243 2282.83 239.372 2285.35 237.5H2305.74V300H2142.53V247.021L2158.15 243.97V168.774L2142.53 165.723V112.5H2305.74V175H2286.08C2283.48 173.21 2280.47 171.379 2277.05 169.507C2273.63 167.635 2269.81 165.967 2265.57 164.502C2261.42 162.956 2256.91 161.735 2252.02 160.84C2247.14 159.863 2241.89 159.375 2236.28 159.375V192.7L2272.9 184.766V227.979L2236.28 220.044V253.125ZM2452.95 300L2446.36 268.506H2395.33L2388.87 300H2319.41V238.477L2334.42 235.425L2370.43 112.5H2471.26L2507.4 235.425L2522.41 238.477V300H2452.95ZM2405.83 226.636H2435.86L2420.85 155.957L2405.83 226.636ZM2744.94 300H2667.31C2664.87 295.361 2662.34 290.438 2659.74 285.229C2657.14 280.021 2654.61 274.609 2652.17 268.994C2649.73 263.379 2647.45 257.56 2645.33 251.538C2643.22 245.516 2641.43 239.331 2639.96 232.983H2635.69V300H2541.94V247.021L2557.57 243.97V168.53L2541.94 165.479V112.5H2648.26C2662.34 112.5 2674.51 113.151 2684.76 114.453C2695.02 115.755 2703.73 117.627 2710.89 120.068C2718.05 122.428 2723.83 125.358 2728.22 128.857C2732.7 132.275 2736.16 136.182 2738.6 140.576C2741.12 144.889 2742.79 149.65 2743.6 154.858C2744.5 159.985 2744.94 165.438 2744.94 171.216C2744.94 177.075 2744.37 182.406 2743.24 187.207C2742.18 191.927 2740.26 196.281 2737.5 200.269C2734.73 204.256 2730.95 207.918 2726.15 211.255C2721.34 214.51 2715.24 217.603 2707.83 220.532C2709.38 223.787 2711.7 227.612 2714.79 232.007C2717.89 236.32 2721.22 240.755 2724.8 245.312C2728.38 249.788 2731.96 254.183 2735.54 258.496C2739.21 262.728 2742.34 266.349 2744.94 269.36V300ZM2635.69 196.973C2640.41 196.973 2644.68 196.769 2648.51 196.362C2652.42 195.955 2655.71 195.02 2658.4 193.555C2661.16 192.09 2663.28 189.933 2664.74 187.085C2666.21 184.237 2666.94 180.412 2666.94 175.61C2666.94 170.89 2666.21 167.147 2664.74 164.38C2663.28 161.532 2661.16 159.334 2658.4 157.788C2655.71 156.242 2652.42 155.225 2648.51 154.736C2644.68 154.248 2640.41 154.004 2635.69 154.004V196.973ZM2840.28 204.053C2840.28 211.051 2841.18 217.074 2842.97 222.119C2844.76 227.165 2847.36 231.315 2850.78 234.57C2854.28 237.826 2858.51 240.226 2863.47 241.772C2868.52 243.319 2874.26 244.092 2880.69 244.092C2888.34 244.092 2897.37 243.156 2907.79 241.284C2918.2 239.412 2929.72 236.523 2942.33 232.617V289.746C2929.23 294.141 2916.45 297.314 2904 299.268C2891.63 301.221 2879.43 302.197 2867.38 302.197C2852.65 302.197 2838.86 300.366 2826 296.704C2813.22 293.042 2802.07 287.142 2792.55 279.004C2783.11 270.785 2775.67 260.449 2770.21 247.998C2764.76 235.547 2762.03 220.898 2762.03 204.053C2762.03 187.614 2764.52 173.454 2769.48 161.572C2774.53 149.691 2781.61 139.925 2790.72 132.275C2799.92 124.544 2810.9 118.848 2823.68 115.186C2836.54 111.523 2850.78 109.692 2866.4 109.692C2876.01 109.692 2884.63 110.181 2892.28 111.157C2900.01 112.134 2906.97 113.354 2913.16 114.819C2919.34 116.284 2924.79 117.952 2929.51 119.824C2934.32 121.615 2938.59 123.364 2942.33 125.073V181.226H2905.59C2901.44 175.366 2896.8 171.053 2891.67 168.286C2886.63 165.519 2881.42 164.136 2876.05 164.136C2871.49 164.136 2867.06 165.031 2862.74 166.821C2858.51 168.612 2854.73 171.216 2851.39 174.634C2848.05 178.052 2845.37 182.243 2843.33 187.207C2841.3 192.09 2840.28 197.705 2840.28 204.053ZM2966.26 112.5H3075.63V165.723L3060.01 168.774V191.846H3122.51V168.774L3106.88 165.723V112.5H3216.26V165.723L3200.63 168.774V243.97L3216.26 247.021V300H3106.88V247.021L3122.51 243.97V219.434H3060.01V243.97L3075.63 247.021V300H2966.26V247.021L2981.88 243.97V168.774L2966.26 165.723V112.5Z" fill="white"/>
</g>
<defs>
<filter id="filter0_i_5_17" x="0" y="53" width="3300" height="304" filterUnits="userSpaceOnUse" color-interpolation-filters="sRGB">
<feFlood flood-opacity="0" result="BackgroundImageFix"/>
<feBlend mode="normal" in="SourceGraphic" in2="BackgroundImageFix" result="shape"/>
<feColorMatrix in="SourceAlpha" type="matrix" values="0 0 0 0 0 0 0 0 0 0 0 0 0 0 0 0 0 0 127 0" result="hardAlpha"/>
<feOffset dy="4"/>
<feGaussianBlur stdDeviation="2"/>
<feComposite in2="hardAlpha" operator="arithmetic" k2="-1" k3="1"/>
<feColorMatrix type="matrix" values="0 0 0 0 0 0 0 0 0 0 0 0 0 0 0 0 0 0 0.25 0"/>
<feBlend mode="normal" in2="shape" result="effect1_innerShadow_5_17"/>
</filter>
<filter id="filter1_i_5_17" x="862.254" y="109.692" width="2354" height="196.505" filterUnits="userSpaceOnUse" color-interpolation-filters="sRGB">
<feFlood flood-opacity="0" result="BackgroundImageFix"/>
<feBlend mode="normal" in="SourceGraphic" in2="BackgroundImageFix" result="shape"/>
<feColorMatrix in="SourceAlpha" type="matrix" values="0 0 0 0 0 0 0 0 0 0 0 0 0 0 0 0 0 0 127 0" result="hardAlpha"/>
<feOffset dy="4"/>
<feGaussianBlur stdDeviation="2"/>
<feComposite in2="hardAlpha" operator="arithmetic" k2="-1" k3="1"/>
<feColorMatrix type="matrix" values="0 0 0 0 0 0 0 0 0 0 0 0 0 0 0 0 0 0 0.25 0"/>
<feBlend mode="normal" in2="shape" result="effect1_innerShadow_5_17"/>
</filter>
<linearGradient id="paint0_linear_5_17" x1="0" y1="203" x2="3300" y2="203" gradientUnits="userSpaceOnUse">
<stop stop-color="#ED213A"/>
<stop offset="1" stop-color="#93291E"/>
</linearGradient>
</defs>
</svg>
