<svg width="100" height="100" viewBox="0 0 100 100" fill="none" xmlns="http://www.w3.org/2000/svg">
<g filter="url(#filter0_i_6_7)">
<path d="M97.2508 83.9969L74.3069 61.0531C70.885 66.3687 66.3662 70.8906 61.0505 74.3094L83.9976 97.2531C87.6602 100.916 93.5945 100.916 97.2508 97.2531C100.916 93.6 100.916 87.6656 97.2508 83.9969Z" fill="url(#paint0_linear_6_7)"/>
<path d="M75.0006 37.5C75.0006 16.7906 58.2098 0 37.5003 0C16.7908 0 0 16.7906 0 37.5C0 58.2094 16.7908 75 37.5003 75C58.2098 75 75.0006 58.2094 75.0006 37.5ZM37.5003 65.625C21.9877 65.625 9.37508 53.0125 9.37508 37.5C9.37508 21.9906 21.9877 9.375 37.5003 9.375C53.0098 9.375 65.6255 21.9906 65.6255 37.5C65.6255 53.0125 53.0098 65.625 37.5003 65.625Z" fill="url(#paint1_linear_6_7)"/>
<path d="M15.6251 37.5H21.8752C21.8752 28.8844 28.8815 21.875 37.5003 21.875V15.625C25.4377 15.625 15.6251 25.4437 15.6251 37.5Z" fill="url(#paint2_linear_6_7)"/>
</g>
<defs>
<filter id="filter0_i_6_7" x="0" y="0" width="100" height="104" filterUnits="userSpaceOnUse" color-interpolation-filters="sRGB">
<feFlood flood-opacity="0" result="BackgroundImageFix"/>
<feBlend mode="normal" in="SourceGraphic" in2="BackgroundImageFix" result="shape"/>
<feColorMatrix in="SourceAlpha" type="matrix" values="0 0 0 0 0 0 0 0 0 0 0 0 0 0 0 0 0 0 127 0" result="hardAlpha"/>
<feOffset dy="4"/>
<feGaussianBlur stdDeviation="2"/>
<feComposite in2="hardAlpha" operator="arithmetic" k2="-1" k3="1"/>
<feColorMatrix type="matrix" values="0 0 0 0 0 0 0 0 0 0 0 0 0 0 0 0 0 0 0.25 0"/>
<feBlend mode="normal" in2="shape" result="effect1_innerShadow_6_7"/>
</filter>
<linearGradient id="paint0_linear_6_7" x1="-7.27235e-10" y1="50" x2="100.001" y2="50" gradientUnits="userSpaceOnUse">
<stop stop-color="#ED213A"/>
<stop offset="1" stop-color="#93291E"/>
</linearGradient>
<linearGradient id="paint1_linear_6_7" x1="-7.27235e-10" y1="50" x2="100.001" y2="50" gradientUnits="userSpaceOnUse">
<stop stop-color="#ED213A"/>
<stop offset="1" stop-color="#93291E"/>
</linearGradient>
<linearGradient id="paint2_linear_6_7" x1="-7.27235e-10" y1="50" x2="100.001" y2="50" gradientUnits="userSpaceOnUse">
<stop stop-color="#ED213A"/>
<stop offset="1" stop-color="#93291E"/>
</linearGradient>
</defs>
</svg>
